<svg width="1442" height="812" viewBox="0 0 1442 812" fill="none" xmlns="http://www.w3.org/2000/svg">
<g opacity="0.3" clip-path="url(#clip0_1_446)">
<path d="M1236.25 645.531L1235.97 645.044L1574.02 448.757L1574.3 449.243L1236.25 645.531Z" fill="#D1D1D1"/>
<path d="M1406.08 808.036L1067.07 613.412L1067.35 612.925L1406.36 807.548L1406.08 808.036Z" fill="#D1D1D1"/>
<path d="M828.629 638.919L561.989 485.922L562.238 485.488L828.878 638.486L828.629 638.919Z" fill="#D1D1D1"/>
<path d="M672.969 161.575L333.961 -33.0484L334.241 -33.5351L673.249 161.088L672.969 161.575Z" fill="#D1D1D1"/>
<path d="M116.195 484.504L115.952 484.086L364.015 340.049L364.258 340.467L116.195 484.504Z" fill="#D1D1D1"/>
<path d="M9.25067 481.617L9.0077 481.199L257.071 337.161L257.314 337.58L9.25067 481.617Z" fill="#D1D1D1"/>
<path d="M845.598 677.42L845.355 677.001L1093.41 532.964L1093.67 533.383L845.598 677.42Z" fill="#D1D1D1"/>
<path d="M617.235 323.77L617.019 323.398L814.396 208.792L814.612 209.162L617.235 323.77Z" fill="#D1D1D1"/>
<path d="M393.037 549.864L392.896 549.943L336.651 582.602L336.811 647.801L336.952 647.878L393.357 680.262L449.742 647.523L449.582 582.324L449.441 582.247L393.037 549.864ZM337.214 582.928L393.038 550.512L449.02 582.654L449.179 647.205L393.355 679.614L337.372 647.479L337.214 582.928Z" fill="#D1D1D1"/>
<path d="M617.615 484.442L617.474 484.52L561.229 517.18L561.389 582.379L561.53 582.456L617.935 614.839L618.075 614.76L674.32 582.101L674.159 516.902L674.019 516.825L617.615 484.442ZM561.792 517.498L617.616 485.082L673.599 517.224L673.758 581.774L617.933 614.192L561.95 582.049L561.792 517.498Z" fill="#D1D1D1"/>
<path d="M561.43 484.377L561.056 484.596L504.577 517.389L504.739 583.127L505.113 583.344L561.753 615.859L618.605 582.847L618.444 517.109L618.069 516.892L561.43 484.377ZM506.077 518.252L561.434 486.109L616.948 517.98L617.105 581.992L561.749 614.134L506.235 582.264L506.077 518.252Z" fill="#D1D1D1"/>
<path d="M730.215 581.831L730.075 581.909L673.83 614.568L673.991 679.767L674.131 679.845L730.536 712.228L786.921 679.49L786.761 614.291L786.621 614.213L730.215 581.831ZM674.393 614.887L730.217 582.471L786.2 614.612L786.358 679.163L730.534 711.58L674.552 679.438L674.393 614.887Z" fill="#D1D1D1"/>
<path d="M673.952 549.52L673.812 549.598L617.567 582.258L617.727 647.456L617.867 647.534L674.272 679.917L730.658 647.179L730.498 581.98L730.356 581.902L673.952 549.52ZM618.137 582.584L673.961 550.167L729.944 582.309L730.103 646.86L674.278 679.277L618.295 647.135L618.137 582.584Z" fill="#D1D1D1"/>
<path d="M392.956 517.242L392.582 517.462L336.103 550.255L336.265 615.992L393.28 648.724L450.133 615.712L449.971 549.975L449.596 549.757L392.956 517.242ZM337.604 551.117L392.961 518.975L448.474 550.845L448.631 614.857L393.275 646.992L337.761 615.122L337.604 551.117Z" fill="#D1D1D1"/>
<path d="M336.693 485.476L336.553 485.555L280.307 518.214L280.468 583.413L280.609 583.491L337.014 615.873L393.399 583.135L393.239 517.937L393.098 517.859L336.693 485.476ZM280.87 518.533L336.695 486.116L392.678 518.258L392.837 582.809L337.012 615.225L281.029 583.083L280.87 518.533Z" fill="#D1D1D1"/>
<path d="M505.326 517.504L505.186 517.582L448.941 550.242L449.101 615.441L449.242 615.518L505.647 647.902L562.032 615.163L561.871 549.964L561.731 549.887L505.326 517.504ZM449.504 550.568L505.328 518.16L561.31 550.294L561.469 614.844L505.645 647.262L449.662 615.119L449.504 550.568Z" fill="#D1D1D1"/>
<path d="M505.486 582.383L505.345 582.461L449.1 615.121L449.26 680.319L449.402 680.397L505.806 712.78L562.191 680.042L562.031 614.843L561.891 614.765L505.486 582.383ZM449.663 615.439L505.487 583.023L561.47 615.164L561.628 679.715L505.805 712.132L449.822 679.99L449.663 615.439Z" fill="#D1D1D1"/>
<path d="M784.963 -3.0965L784.59 -2.87756L728.11 29.9163L728.272 95.6531L728.647 95.8702L785.286 128.385L785.661 128.166L842.139 95.3733L841.978 29.6365L841.602 29.4184L784.963 -3.0965ZM729.611 30.7786L784.967 -1.36353L840.482 30.5062L840.639 94.518L785.282 126.661L729.768 94.7904L729.611 30.7786Z" fill="#D1D1D1"/>
<path d="M728.7 -34.8614L728.56 -34.783L672.315 -2.12373L672.475 63.0751L672.616 63.1528L729.02 95.5353L729.161 95.4569L785.406 62.7976L785.246 -2.40122L785.106 -2.47887L728.7 -34.8614ZM672.886 -1.80512L728.709 -34.2144L784.693 -2.07985L784.851 62.471L729.027 94.8802L673.044 62.7457L672.886 -1.80512Z" fill="#D1D1D1"/>
<path d="M672.604 -2.28142L672.463 -2.20307L616.218 30.4562L616.378 95.655L616.519 95.7327L672.924 128.115L673.064 128.037L729.309 95.3775L729.149 30.1787L729.008 30.1011L672.604 -2.28142ZM616.781 30.7829L672.605 -1.63341L728.588 30.5081L728.747 95.0589L672.923 127.475L616.939 95.3336L616.781 30.7829Z" fill="#D1D1D1"/>
<path d="M672.761 62.0584L672.387 62.2773L615.909 95.0702L616.07 160.808L616.445 161.025L673.084 193.54L673.458 193.321L729.937 160.528L729.775 94.7904L729.401 94.5733L672.761 62.0584ZM617.409 95.9255L672.765 63.7834L728.28 95.6531L728.437 159.665L673.08 191.808L617.566 159.937L617.409 95.9255Z" fill="#D1D1D1"/>
<path d="M335.419 -33.201L335.279 -33.1226L279.033 -0.463326L279.193 64.7355L279.334 64.8131L335.739 97.1956L335.88 97.1173L392.125 64.458L391.965 -0.740818L391.823 -0.818474L335.419 -33.201ZM279.596 -0.1447L335.42 -32.553L391.403 -0.419431L391.562 64.1313L335.738 96.5406L279.754 64.4061L279.596 -0.1447Z" fill="#D1D1D1"/>
<path d="M279.154 -65.5148L279.014 -65.4365L222.769 -32.7772L222.93 32.4216L223.07 32.4992L279.475 64.8818L279.615 64.8034L335.86 32.1441L335.7 -33.0547L335.559 -33.1323L279.154 -65.5148ZM223.332 -32.4506L279.156 -64.8598L335.139 -32.7253L335.298 31.8255L279.473 64.2338L223.491 32.1003L223.332 -32.4506Z" fill="#D1D1D1"/>
<path d="M223.05 -32.9249L222.909 -32.8465L166.664 -0.187233L166.825 65.0115L166.966 65.0892L223.37 97.4717L223.51 97.3934L279.755 64.7341L279.595 -0.464723L279.455 -0.542382L223.05 -32.9249ZM167.227 0.131392L223.052 -32.2769L279.034 -0.143336L279.192 64.4074L223.369 96.8247L167.386 64.6822L167.227 0.131392Z" fill="#D1D1D1"/>
<path d="M223.21 31.9459L223.069 32.0242L166.824 64.6835L166.984 129.882L167.125 129.96L223.53 162.344L223.67 162.264L279.915 129.605L279.754 64.4061L279.614 64.3284L223.21 31.9459ZM167.387 65.0102L223.211 32.5939L279.193 64.7354L279.352 129.286L223.528 161.703L167.545 129.561L167.387 65.0102Z" fill="#D1D1D1"/>
<path d="M897.571 94.1431L897.432 94.2214L841.187 126.882L841.347 192.081L841.487 192.158L897.892 224.541L898.033 224.462L954.277 191.803L954.117 126.604L953.976 126.527L897.571 94.1431ZM841.749 127.208L897.573 94.7991L953.556 126.934L953.715 191.484L897.89 223.893L841.908 191.759L841.749 127.208Z" fill="#D1D1D1"/>
<path d="M841.388 94.6262L841.248 94.7044L785.003 127.365L785.163 192.563L785.304 192.64L841.709 225.024L841.849 224.945L898.094 192.285L897.933 127.087L897.793 127.009L841.388 94.6262ZM785.565 127.69L841.39 95.2821L897.372 127.416L897.531 191.966L841.707 224.384L785.724 192.241L785.565 127.69Z" fill="#D1D1D1"/>
<path d="M1010.18 191.534L1010.04 191.612L953.795 224.272L953.955 289.471L954.096 289.549L1010.51 321.931L1010.65 321.853L1066.89 289.194L1066.72 223.995L1066.58 223.917L1010.18 191.534ZM954.358 224.599L1010.19 192.19L1066.17 224.324L1066.32 288.875L1010.5 321.291L954.517 289.15L954.358 224.599Z" fill="#D1D1D1"/>
<path d="M785.283 127.214L785.142 127.292L728.898 159.953L729.058 225.152L729.199 225.229L785.604 257.612L785.743 257.533L841.988 224.874L841.828 159.675L841.688 159.598L785.283 127.214ZM729.46 160.279L785.285 127.862L841.267 160.005L841.426 224.555L785.602 256.964L729.619 224.83L729.46 160.279Z" fill="#D1D1D1"/>
<path opacity="0.3" d="M1234.43 -4.20094L1234.06 -3.98199L1177.58 28.8119L1177.74 94.5487L1178.12 94.7657L1234.76 127.281L1235.13 127.062L1291.61 94.2689L1291.45 28.5321L1291.06 28.314L1234.43 -4.20094ZM1179.08 29.6742L1234.44 -2.46798L1289.95 29.4018L1290.1 93.4135L1234.75 125.557L1179.24 93.686L1179.08 29.6742Z" fill="#FFC300"/>
<path d="M1178.18 -35.9658L1178.04 -35.8875L1121.79 -3.22816L1121.95 61.9707L1122.09 62.0483L1178.5 94.4308L1178.64 94.3525L1234.88 61.6932L1234.72 -3.50564L1234.58 -3.5833L1178.18 -35.9658ZM1122.36 -2.90955L1178.18 -35.3188L1234.16 -3.18426L1234.32 61.3666L1178.5 93.7758L1122.52 61.6413L1122.36 -2.90955Z" fill="#D1D1D1"/>
<path d="M1347.03 93.0387L1346.89 93.117L1290.65 125.777L1290.81 190.976L1290.95 191.054L1347.35 223.436L1347.5 223.358L1403.74 190.699L1403.58 125.5L1403.44 125.422L1347.03 93.0387ZM1291.22 126.104L1347.04 93.6947L1403.02 125.829L1403.18 190.38L1347.35 222.788L1291.37 190.655L1291.22 126.104Z" fill="#D1D1D1"/>
<path d="M1290.86 93.5218L1290.72 93.6L1234.47 126.26L1234.63 191.458L1234.77 191.536L1291.18 223.919L1291.32 223.841L1347.57 191.181L1347.4 125.983L1347.25 125.904L1290.86 93.5218ZM1235.04 126.586L1290.86 94.1777L1346.84 126.311L1346.99 190.862L1291.17 223.279L1235.19 191.137L1235.04 126.586Z" fill="#D1D1D1"/>
<path d="M1234.75 126.11L1234.62 126.188L1178.37 158.848L1178.53 224.047L1178.67 224.125L1235.08 256.507L1235.22 256.429L1291.46 223.77L1291.29 158.571L1291.15 158.493L1234.75 126.11ZM1178.93 159.175L1234.76 126.758L1290.74 158.9L1290.89 223.451L1235.07 255.859L1179.08 223.726L1178.93 159.175Z" fill="#D1D1D1"/>
<path d="M785.443 192.086L785.302 192.164L729.057 224.825L729.217 290.023L729.358 290.101L785.763 322.483L785.903 322.405L842.148 289.746L841.988 224.547L841.847 224.469L785.443 192.086ZM729.62 225.151L785.444 192.742L841.426 224.876L841.585 289.427L785.761 321.843L729.778 289.702L729.62 225.151Z" fill="#D1D1D1"/>
<path d="M897.811 191.81L897.672 191.888L841.427 224.548L841.587 289.747L841.727 289.825L898.132 322.207L898.273 322.129L954.517 289.47L954.357 224.271L954.216 224.193L897.811 191.81ZM841.989 224.875L897.813 192.466L953.796 224.6L953.955 289.151L898.13 321.567L842.148 289.426L841.989 224.875Z" fill="#D1D1D1"/>
<path opacity="0.34" d="M897.969 256.15L897.596 256.37L841.116 289.162L841.278 354.899L841.653 355.117L898.293 387.632L898.667 387.412L955.146 354.619L954.984 288.883L954.609 288.665L897.969 256.15ZM842.617 290.017L897.974 257.875L953.488 289.744L953.645 353.757L898.288 385.899L842.775 354.03L842.617 290.017Z" fill="#1814E5"/>
<path d="M448.903 420.328L448.762 420.407L392.517 453.066L392.677 518.265L392.818 518.343L449.223 550.725L449.363 550.647L505.608 517.987L505.447 452.789L505.307 452.711L448.903 420.328ZM393.08 453.393L448.904 420.984L504.887 453.118L505.046 517.669L449.221 550.085L393.238 517.944L393.08 453.393Z" fill="#D1D1D1"/>
<path d="M673.473 354.906L673.334 354.984L617.096 387.644L617.256 452.843L617.397 452.921L673.802 485.303L673.942 485.225L730.187 452.565L730.026 387.367L729.886 387.289L673.473 354.906ZM617.658 387.971L673.483 355.553L729.466 387.696L729.625 452.247L673.8 484.655L617.817 452.522L617.658 387.971Z" fill="#D1D1D1"/>
<path d="M729.816 419.304L729.676 419.383L673.431 452.042L673.591 517.241L673.731 517.318L730.136 549.701L730.277 549.623L786.522 516.963L786.362 451.764L786.222 451.687L729.816 419.304ZM673.994 452.361L729.817 419.943L785.801 452.086L785.959 516.637L730.135 549.046L674.152 516.911L673.994 452.361Z" fill="#D1D1D1"/>
<path d="M785.92 386.16L785.546 386.379L729.067 419.172L729.228 484.91L729.604 485.127L786.243 517.642L786.617 517.423L843.096 484.63L842.934 418.892L842.559 418.675L785.92 386.16ZM730.568 420.035L785.924 387.892L841.438 419.763L841.596 483.775L786.238 515.917L730.725 484.047L730.568 420.035Z" fill="#D1D1D1"/>
<path d="M898.53 484.096L898.39 484.174L842.145 516.834L842.305 582.032L842.445 582.11L898.85 614.492L955.236 581.755L955.075 516.556L954.934 516.478L898.53 484.096ZM842.708 517.152L898.531 484.743L954.514 516.877L954.673 581.428L898.848 613.845L842.866 581.703L842.708 517.152Z" fill="#D1D1D1"/>
<path d="M842.266 451.781L842.125 451.859L785.88 484.52L786.04 549.718L786.182 549.796L842.586 582.179L842.726 582.1L898.971 549.441L898.811 484.242L898.671 484.165L842.266 451.781ZM786.443 484.846L842.268 452.437L898.25 484.572L898.408 549.122L842.585 581.539L786.602 549.397L786.443 484.846Z" fill="#D1D1D1"/>
<path d="M786.161 484.372L786.02 484.45L729.775 517.11L729.935 582.308L730.077 582.386L786.481 614.769L842.866 582.031L842.706 516.832L842.566 516.755L786.161 484.372ZM730.338 517.428L786.162 485.019L842.145 517.154L842.303 581.704L786.48 614.121L730.497 581.979L730.338 517.428Z" fill="#D1D1D1"/>
<path d="M841.788 257.17L841.647 257.248L785.402 289.908L785.562 355.106L785.703 355.184L842.108 387.567L842.248 387.489L898.493 354.829L898.333 289.631L898.192 289.552L841.788 257.17ZM785.965 290.227L841.789 257.81L897.771 289.952L897.93 354.503L842.107 386.919L786.123 354.778L785.965 290.227Z" fill="#D1D1D1"/>
<path d="M785.602 256.95L785.461 257.028L729.216 289.687L729.377 354.886L729.518 354.964L785.922 387.346L786.062 387.268L842.307 354.609L842.147 289.41L842.007 289.332L785.602 256.95ZM729.779 290.014L785.604 257.597L841.586 289.739L841.744 354.29L785.921 386.698L729.938 354.565L729.779 290.014Z" fill="#D1D1D1"/>
<path d="M954.395 353.873L954.254 353.952L898.009 386.611L898.169 451.81L898.31 451.887L954.715 484.27L954.855 484.191L1011.1 451.532L1010.94 386.333L1010.8 386.256L954.395 353.873ZM898.572 386.937L954.396 354.528L1010.37 386.663L1010.53 451.214L954.714 483.63L898.73 451.488L898.572 386.937Z" fill="#D1D1D1"/>
<path d="M898.13 321.565L897.99 321.644L841.745 354.304L841.906 419.502L842.046 419.58L898.451 451.963L898.591 451.885L954.836 419.224L954.676 354.027L954.535 353.949L898.13 321.565ZM842.308 354.623L898.132 322.205L954.115 354.348L954.273 418.899L898.449 451.315L842.467 419.173L842.308 354.623Z" fill="#D1D1D1"/>
<path d="M335.897 161.427L335.757 161.506L279.511 194.165L279.671 259.364L279.813 259.442L336.217 291.824L336.358 291.746L392.603 259.086L392.443 193.888L392.302 193.81L335.897 161.427ZM280.074 194.492L335.899 162.075L391.882 194.217L392.04 258.768L336.216 291.177L280.233 259.042L280.074 194.492Z" fill="#D1D1D1"/>
<path d="M448.506 258.816L448.365 258.894L392.12 291.554L392.28 356.752L392.421 356.83L448.826 389.213L448.966 389.134L505.211 356.475L505.051 291.276L504.91 291.199L448.506 258.816ZM392.683 291.88L448.507 259.464L504.49 291.606L504.649 356.156L448.824 388.566L392.841 356.431L392.683 291.88Z" fill="#D1D1D1"/>
<path d="M392.242 226.51L392.101 226.588L335.856 259.249L336.017 324.448L336.158 324.525L392.562 356.908L392.702 356.829L448.947 324.17L448.787 258.971L448.647 258.894L392.242 226.51ZM336.419 259.567L392.244 227.15L448.226 259.293L448.384 323.843L392.561 356.252L336.578 324.118L336.419 259.567Z" fill="#D1D1D1"/>
<path d="M391.764 31.8907L391.623 31.9691L335.378 64.6294L335.538 129.827L335.68 129.906L392.084 162.288L392.224 162.21L448.469 129.55L448.309 64.3519L448.169 64.2742L391.764 31.8907ZM335.941 64.955L391.765 32.5468L447.748 64.6803L447.906 129.231L392.083 161.648L336.1 129.506L335.941 64.955Z" fill="#D1D1D1"/>
<path d="M335.578 31.6778L335.438 31.7561L279.192 64.4154L279.353 129.614L279.494 129.692L335.899 162.074L336.039 161.996L392.284 129.337L392.124 64.1379L391.983 64.0603L335.578 31.6778ZM279.755 64.7341L335.58 32.3258L391.563 64.4593L391.721 129.01L335.897 161.427L279.914 129.285L279.755 64.7341Z" fill="#D1D1D1"/>
<path opacity="0.34" d="M504.37 128.061L503.995 128.28L447.516 161.073L447.678 226.811L448.054 227.028L504.693 259.543L505.066 259.324L561.546 226.531L561.384 160.793L561.009 160.576L504.37 128.061ZM449.017 161.928L504.374 129.786L559.887 161.656L560.045 225.668L504.688 257.811L449.174 225.94L449.017 161.928Z" fill="#1814E5"/>
<path d="M448.106 96.2865L447.965 96.3648L391.721 129.024L391.881 194.223L392.022 194.301L448.427 226.683L448.566 226.605L504.811 193.945L504.651 128.747L504.511 128.669L448.106 96.2865ZM392.283 129.351L448.108 96.9415L504.091 129.076L504.25 193.627L448.425 226.035L392.442 193.902L392.283 129.351Z" fill="#D1D1D1"/>
<path d="M504.769 290.8L504.629 290.878L448.384 323.537L448.544 388.736L448.685 388.814L505.09 421.196L505.23 421.118L561.475 388.459L561.314 323.26L561.174 323.182L504.769 290.8ZM448.946 323.856L504.771 291.448L560.753 323.581L560.912 388.132L505.088 420.541L449.105 388.407L448.946 323.856Z" fill="#D1D1D1"/>
<path d="M617.219 323.28L617.078 323.358L560.833 356.017L560.993 421.216L561.134 421.294L617.539 453.676L617.679 453.598L673.924 420.939L673.763 355.74L673.623 355.662L617.219 323.28ZM561.396 356.336L617.22 323.92L673.203 356.061L673.362 420.612L617.537 453.029L561.554 420.887L561.396 356.336Z" fill="#D1D1D1"/>
<path d="M616.74 128.659L616.599 128.738L560.355 161.397L560.515 226.596L560.656 226.673L617.061 259.056L617.201 258.978L673.445 226.318L673.285 161.119L673.145 161.042L616.74 128.659ZM560.917 161.723L616.742 129.314L672.725 161.449L672.884 226L617.059 258.416L561.076 226.274L560.917 161.723Z" fill="#D1D1D1"/>
<path d="M560.554 127.752L560.413 127.831L504.168 160.49L504.328 225.689L504.469 225.766L560.874 258.149L561.014 258.071L617.259 225.411L617.099 160.212L616.959 160.135L560.554 127.752ZM504.731 160.817L560.556 128.407L616.538 160.542L616.696 225.093L560.873 257.509L504.89 225.367L504.731 160.817Z" fill="#D1D1D1"/>
<path d="M560.715 193.153L560.574 193.231L504.329 225.891L504.489 291.09L504.629 291.167L561.035 323.551L561.175 323.472L617.42 290.812L617.26 225.613L617.119 225.536L560.715 193.153ZM504.892 226.209L560.716 193.801L616.698 225.935L616.857 290.485L561.033 322.903L505.05 290.76L504.892 226.209Z" fill="#D1D1D1"/>
<path opacity="0.6" d="M1178.73 190.224L1178.35 190.443L1121.87 223.236L1122.03 288.973L1122.42 289.19L1179.06 321.705L1179.42 321.486L1235.9 288.693L1235.74 222.957L1235.37 222.738L1178.73 190.224ZM1123.38 224.099L1178.74 191.957L1234.24 223.826L1234.4 287.838L1179.05 319.981L1123.53 288.11L1123.38 224.099Z" fill="#1814E6"/>
<path d="M1122.54 191.251L1122.4 191.329L1066.16 223.988L1066.33 289.187L1066.47 289.265L1122.87 321.647L1123 321.569L1179.25 288.91L1179.09 223.711L1178.95 223.633L1122.54 191.251ZM1066.73 224.307L1122.55 191.891L1178.54 224.032L1178.69 288.583L1122.86 320.999L1066.88 288.858L1066.73 224.307Z" fill="#D1D1D1"/>
<path d="M1291.33 288.158L1291.19 288.236L1234.94 320.896L1235.1 386.095L1235.24 386.172L1291.65 418.555L1291.79 418.476L1348.04 385.817L1347.88 320.618L1347.73 320.541L1291.33 288.158ZM1235.51 321.222L1291.33 288.806L1347.31 320.948L1347.47 385.498L1291.65 417.915L1235.67 385.773L1235.51 321.222Z" fill="#D1D1D1"/>
<path opacity="0.3" d="M1235.07 255.306L1234.69 255.525L1178.21 288.318L1178.37 354.056L1178.76 354.273L1235.4 386.788L1235.76 386.569L1292.24 353.776L1292.08 288.038L1291.7 287.821L1235.07 255.306ZM1179.72 289.181L1235.08 257.038L1290.59 288.909L1290.74 352.921L1235.39 385.063L1179.87 353.193L1179.72 289.181Z" fill="#FFC300"/>
<path d="M1066.44 223.831L1066.3 223.909L1010.05 256.568L1010.22 321.767L1010.36 321.845L1066.76 354.228L1066.9 354.149L1123.15 321.489L1122.99 256.291L1122.84 256.213L1066.44 223.831ZM1010.63 256.895L1066.45 224.487L1122.43 256.62L1122.58 321.171L1066.76 353.58L1010.78 321.446L1010.63 256.895Z" fill="#D1D1D1"/>
<path d="M1178.97 288.434L1178.83 288.513L1122.58 321.172L1122.74 386.371L1122.88 386.448L1179.29 418.831L1179.43 418.752L1235.67 386.093L1235.51 320.894L1235.37 320.817L1178.97 288.434ZM1123.15 321.498L1178.98 289.082L1234.95 321.224L1235.11 385.775L1179.29 418.191L1123.31 386.049L1123.15 321.498Z" fill="#D1D1D1"/>
<path d="M1179.13 353.312L1178.99 353.39L1122.74 386.05L1122.9 451.248L1123.04 451.326L1179.45 483.709L1179.59 483.63L1235.83 450.971L1235.67 385.772L1235.53 385.695L1179.13 353.312ZM1123.31 386.368L1179.13 353.96L1235.11 386.094L1235.27 450.644L1179.45 483.062L1123.47 450.919L1123.31 386.368Z" fill="#D1D1D1"/>
<path d="M1067.08 483.322L1066.94 483.4L1010.69 516.06L1010.85 581.258L1010.99 581.336L1067.4 613.719L1067.54 613.641L1123.79 580.981L1123.63 515.783L1123.48 515.705L1067.08 483.322ZM1011.26 516.379L1067.08 483.962L1123.06 516.104L1123.22 580.655L1067.4 613.071L1011.42 580.93L1011.26 516.379Z" fill="#D1D1D1"/>
<path d="M1066.76 353.572L1066.62 353.65L1010.37 386.311L1010.53 451.509L1010.67 451.586L1067.08 483.97L1067.22 483.891L1123.47 451.231L1123.31 386.033L1123.16 385.956L1066.76 353.572ZM1010.94 386.629L1066.76 354.22L1122.74 386.355L1122.9 450.905L1067.08 483.322L1011.1 451.18L1010.94 386.629Z" fill="#D1D1D1"/>
<path d="M1235.55 450.496L1235.41 450.574L1179.16 483.233L1179.32 548.432L1179.46 548.51L1235.87 580.893L1236.01 580.815L1292.25 548.155L1292.09 482.956L1291.95 482.878L1235.55 450.496ZM1179.72 483.552L1235.55 451.136L1291.53 483.277L1291.69 547.828L1235.87 580.245L1179.88 548.103L1179.72 483.552Z" fill="#D1D1D1"/>
<path opacity="0.3" d="M1179.29 417.646L1178.91 417.865L1122.43 450.658L1122.59 516.395L1122.97 516.612L1179.61 549.127L1179.98 548.909L1236.46 516.116L1236.3 450.378L1235.93 450.161L1179.29 417.646ZM1123.93 451.513L1179.3 419.371L1234.8 451.24L1234.96 515.252L1179.61 547.395L1124.09 515.525L1123.93 451.513Z" fill="#1814E5"/>
<path d="M1123.34 515.621L1123.2 515.699L1066.96 548.358L1067.12 613.557L1067.26 613.635L1123.66 646.017L1180.05 613.28L1179.89 548.081L1179.75 548.003L1123.34 515.621ZM1067.52 548.685L1123.34 516.269L1179.33 548.41L1179.49 612.961L1123.66 645.377L1067.68 613.236L1067.52 548.685Z" fill="#D1D1D1"/>
<path d="M1179.77 612.803L1123.38 645.541L1123.54 710.74L1123.68 710.818L1180.09 743.2L1236.47 710.462L1236.31 645.263L1236.17 645.186L1179.77 612.803ZM1123.95 645.867L1179.77 613.451L1235.75 645.593L1235.91 710.144L1180.09 742.56L1124.11 710.418L1123.95 645.867Z" fill="#D1D1D1"/>
<path d="M1123.5 580.49L1123.36 580.569L1067.12 613.228L1067.28 678.427L1067.42 678.504L1123.82 710.887L1180.21 678.149L1180.05 612.951L1179.91 612.873L1123.5 580.49ZM1067.68 613.555L1123.5 581.145L1179.49 613.28L1179.65 677.831L1123.82 710.247L1067.84 678.105L1067.68 613.555Z" fill="#D1D1D1"/>
<path d="M1010.5 321.299L1010.35 321.378L954.114 354.037L954.274 419.236L954.415 419.313L1010.82 451.697L1010.96 451.619L1067.2 418.958L1067.04 353.759L1066.9 353.682L1010.5 321.299ZM954.677 354.356L1010.51 321.939L1066.48 354.081L1066.64 418.632L1010.82 451.049L954.836 418.906L954.677 354.356Z" fill="#D1D1D1"/>
<path d="M1010.74 418.582L1010.59 418.66L954.353 451.321L954.513 516.518L954.654 516.596L1011.06 548.98L1011.2 548.901L1067.44 516.241L1067.28 451.043L1067.14 450.965L1010.74 418.582ZM954.916 451.646L1010.74 419.23L1066.72 451.372L1066.88 515.922L1011.06 548.34L955.075 516.197L954.916 451.646Z" fill="#D1D1D1"/>
<path d="M110.928 64.3219L110.788 64.4002L54.5425 97.0596L54.7027 162.258L54.8434 162.336L111.248 194.719L111.389 194.64L167.634 161.981L167.474 96.7821L167.332 96.7044L110.928 64.3219ZM55.1052 97.3861L110.929 64.9689L166.912 97.1114L167.071 161.662L111.247 194.071L55.2638 161.937L55.1052 97.3861Z" fill="#D1D1D1"/>
<path d="M54.7424 64.263L54.3683 64.4829L-2.11046 97.2758L-1.94894 163.013L-1.57378 163.231L55.0655 195.746L55.4395 195.526L111.919 162.733L111.757 96.996L111.381 96.7779L54.7424 64.263ZM-0.609879 98.1381L54.7467 65.9959L110.26 97.8657L110.417 161.878L55.0612 194.021L-0.452589 162.151L-0.609879 98.1381Z" fill="#D1D1D1"/>
<path d="M223.528 161.719L223.388 161.797L167.143 194.457L167.303 259.656L167.444 259.734L223.849 292.116L223.989 292.038L280.233 259.378L280.073 194.18L279.933 194.102L223.528 161.719ZM167.713 194.776L223.538 162.367L279.52 194.501L279.679 259.052L223.855 291.468L167.872 259.327L167.713 194.776Z" fill="#D1D1D1"/>
<path d="M167.272 129.405L167.132 129.483L110.887 162.143L111.047 227.341L111.187 227.419L167.592 259.802L167.733 259.724L223.978 227.064L223.818 161.866L223.677 161.788L167.272 129.405ZM111.45 162.462L167.273 130.053L223.257 162.187L223.415 226.745L167.591 259.162L111.608 227.02L111.45 162.462Z" fill="#D1D1D1"/>
<path d="M-1.36225 96.8539L-1.73632 97.0729L-58.2151 129.858L-58.0536 195.596L-57.6785 195.813L-1.03919 228.328L-0.665112 228.109L55.8136 195.316L55.6521 129.578L55.277 129.361L-1.36225 96.8539ZM-56.7145 130.721L-1.35801 98.5779L54.1559 130.449L54.3131 194.46L-1.04343 226.602L-56.5572 194.733L-56.7145 130.721Z" fill="#D1D1D1"/>
<path d="M-1.20103 162.271L-1.34132 162.349L-57.5863 195.009L-57.426 260.208L-57.2855 260.286L-0.880619 292.668L-0.740331 292.59L55.5046 259.931L55.3444 194.732L55.2038 194.654L-1.20103 162.271ZM-57.0236 195.328L-1.19944 162.919L54.7833 195.053L54.9419 259.604L-0.882211 292.02L-56.865 259.879L-57.0236 195.328Z" fill="#D1D1D1"/>
<path d="M111.168 161.995L111.028 162.073L54.7825 194.733L54.9427 259.932L55.0834 260.01L111.488 292.392L111.629 292.314L167.874 259.655L167.714 194.456L167.572 194.378L111.168 161.995ZM55.3451 195.052L111.169 162.643L167.152 194.777L167.311 259.328L111.487 291.744L55.5038 259.603L55.3451 195.052Z" fill="#D1D1D1"/>
<path d="M111.327 226.864L111.187 226.944L54.9419 259.603L55.1021 324.802L55.2428 324.88L111.648 357.262L111.788 357.184L168.033 324.524L167.873 259.326L167.732 259.248L111.327 226.864ZM55.5046 259.93L111.329 227.52L167.312 259.655L167.47 324.206L111.646 356.614L55.6632 324.48L55.5046 259.93Z" fill="#D1D1D1"/>
<path d="M55.1431 227.346L55.0028 227.425L-1.24214 260.085L-1.08193 325.283L-0.941263 325.361L55.4636 357.744L55.6039 357.666L111.849 325.005L111.689 259.808L111.548 259.73L55.1431 227.346ZM-0.679422 260.404L55.1447 227.986L111.128 260.129L111.286 324.68L55.4619 357.088L-0.52081 324.955L-0.679422 260.404Z" fill="#D1D1D1"/>
<path d="M-1.04168 227.125L-1.18197 227.204L-57.4269 259.863L-57.2667 325.07L-57.1261 325.148L-0.721256 357.53L-0.580968 357.452L55.664 324.792L55.5038 259.594L55.3632 259.516L-1.04168 227.125ZM-56.8642 260.19L-1.04009 227.774L54.9426 259.915L55.1013 324.466L-0.722866 356.875L-56.7056 324.741L-56.8642 260.19Z" fill="#D1D1D1"/>
<path d="M167.75 324.049L167.61 324.127L111.365 356.787L111.526 421.986L111.666 422.063L168.07 454.446L168.211 454.367L224.456 421.708L224.296 356.509L224.155 356.432L167.75 324.049ZM111.928 357.113L167.752 324.704L223.735 356.839L223.893 421.389L168.069 453.806L112.087 421.664L111.928 357.113Z" fill="#D1D1D1"/>
<path d="M111.485 291.197L111.111 291.416L54.6323 324.209L54.7939 389.946L55.1691 390.164L111.808 422.679L112.183 422.46L168.661 389.666L168.5 323.929L168.124 323.712L111.485 291.197ZM56.133 325.072L111.489 292.929L167.003 324.8L167.16 388.812L111.804 420.954L56.2902 389.084L56.133 325.072Z" fill="#D1D1D1"/>
<path d="M335.896 160.888L335.521 161.107L279.043 193.9L279.204 259.638L279.58 259.855L336.219 292.37L336.593 292.151L393.072 259.358L392.91 193.62L392.535 193.403L335.896 160.888ZM280.544 194.756L335.9 162.613L391.413 194.483L391.571 258.495L336.214 290.638L280.701 258.767L280.544 194.756Z" fill="#D1D1D1"/>
<path d="M279.792 194.014L279.652 194.093L223.407 226.752L223.567 291.951L223.708 292.028L280.112 324.412L280.253 324.334L336.498 291.673L336.338 226.475L336.197 226.397L279.792 194.014ZM223.97 227.071L279.793 194.654L335.777 226.796L335.935 291.347L280.111 323.764L224.129 291.621L223.97 227.071Z" fill="#D1D1D1"/>
<path opacity="0.34" d="M279.95 258.347L279.577 258.567L223.098 291.36L223.259 357.097L223.634 357.315L280.273 389.83L280.647 389.61L337.126 356.817L336.965 291.08L336.59 290.862L279.95 258.347ZM224.598 292.214L279.954 260.072L335.469 291.942L335.626 355.955L280.269 388.097L224.755 356.227L224.598 292.214Z" fill="#1814E5"/>
<path d="M224.007 356.338L223.866 356.416L167.621 389.076L167.781 454.274L167.922 454.352L224.327 486.735L224.467 486.656L280.712 453.997L280.551 388.798L280.411 388.72L224.007 356.338ZM168.184 389.402L224.008 356.993L279.99 389.127L280.149 453.678L224.325 486.095L168.342 453.953L168.184 389.402Z" fill="#D1D1D1"/>
<path d="M280.111 323.749L279.971 323.827L223.726 356.488L223.886 421.685L224.026 421.764L280.431 454.147L280.572 454.068L336.817 421.408L336.657 356.21L336.515 356.132L280.111 323.749ZM224.289 356.806L280.112 324.397L336.095 356.531L336.254 421.082L280.429 453.499L224.447 421.357L224.289 356.806Z" fill="#D1D1D1"/>
<path d="M1178.17 -35.9448L1178.03 -35.8664L1121.79 -3.20716L1121.95 61.9917L1122.09 62.0693L1178.49 94.4528L1178.63 94.3735L1234.88 61.7142L1234.72 -3.48465L1234.58 -3.56231L1178.17 -35.9448ZM1122.35 -2.88054L1178.17 -35.2888L1234.15 -3.15525L1234.31 61.3956L1178.49 93.8048L1122.51 61.6703L1122.35 -2.88054Z" fill="#D1D1D1"/>
<path d="M1121.91 -68.2487L1121.77 -68.1703L1065.52 -35.511L1065.68 29.6878L1065.82 29.7655L1122.23 62.148L1122.37 62.0696L1178.61 29.4103L1178.45 -35.7885L1178.31 -35.8661L1121.91 -68.2487ZM1066.08 -35.1924L1121.91 -67.6016L1177.89 -35.4671L1178.05 29.0837L1122.23 61.4929L1066.24 29.3584L1066.08 -35.1924Z" fill="#D1D1D1"/>
<path d="M953.438 -35.3926L953.297 -35.3142L897.052 -2.65495L897.213 62.5439L897.354 62.6215L953.759 95.005L953.898 94.9257L1010.15 62.2664L1009.99 -2.93245L1009.85 -3.0101L953.438 -35.3926ZM897.615 -2.32832L953.44 -34.7366L1009.42 -2.60304L1009.58 61.9478L953.757 94.357L897.774 62.2225L897.615 -2.32832Z" fill="#D1D1D1"/>
<path d="M1065.8 -35.6687L1065.66 -35.5903L1009.42 -2.93104L1009.58 62.2678L1009.72 62.3455L1066.12 94.7289L1066.26 94.6496L1122.51 61.9903L1122.35 -3.20853L1122.21 -3.28618L1065.8 -35.6687ZM1009.98 -2.60441L1065.8 -35.0127L1121.79 -2.87915L1121.95 61.6717L1066.12 94.0809L1010.14 61.9464L1009.98 -2.60441Z" fill="#D1D1D1"/>
<path d="M1065.96 29.2111L1065.82 29.2895L1009.58 61.9488L1009.74 127.148L1009.88 127.225L1066.28 159.608L1066.42 159.529L1122.67 126.87L1122.51 61.6713L1122.37 61.5936L1065.96 29.2111ZM1010.14 62.2674L1065.96 29.8511L1121.95 61.9926L1122.11 126.543L1066.28 158.953L1010.3 126.818L1010.14 62.2674Z" fill="#D1D1D1"/>
<path d="M1009.78 28.9982L1009.64 29.0765L953.388 61.7368L953.548 126.935L953.688 127.012L1010.1 159.396L1010.24 159.317L1066.48 126.657L1066.32 61.4594L1066.18 61.3817L1009.78 28.9982ZM953.959 62.0554L1009.79 29.6461L1065.77 61.7807L1065.92 126.331L1010.1 158.74L954.117 126.606L953.959 62.0554Z" fill="#D1D1D1"/>
<path d="M953.598 29.4712L953.457 29.5496L897.212 62.2098L897.372 127.408L897.513 127.485L953.918 159.869L954.058 159.79L1010.31 127.13L1010.15 61.9323L1010.01 61.8547L953.598 29.4712ZM897.775 62.5355L953.599 30.1272L1009.58 62.2608L1009.74 126.812L953.916 159.221L897.933 127.086L897.775 62.5355Z" fill="#D1D1D1"/>
<path d="M1122.39 126.395L1122.25 126.473L1066 159.133L1066.16 224.331L1066.3 224.409L1122.71 256.792L1122.85 256.714L1179.09 224.054L1178.93 158.856L1178.79 158.778L1122.39 126.395ZM1066.56 159.459L1122.39 127.051L1178.37 159.184L1178.52 223.735L1122.7 256.144L1066.72 224.01L1066.56 159.459Z" fill="#D1D1D1"/>
<path d="M1066.12 94.0809L1065.98 94.1593L1009.74 126.819L1009.9 192.017L1010.04 192.095L1066.44 224.479L1066.58 224.399L1122.83 191.74L1122.67 126.541L1122.53 126.463L1066.12 94.0809ZM1010.3 127.145L1066.12 94.7369L1122.11 126.87L1122.27 191.421L1066.43 223.831L1010.46 191.696L1010.3 127.145Z" fill="#D1D1D1"/>
<path d="M1178.49 93.8138L1178.35 93.8922L1122.11 126.551L1122.27 191.758L1122.41 191.836L1178.81 224.218L1178.95 224.14L1235.2 191.481L1235.04 126.282L1234.9 126.204L1178.49 93.8138ZM1122.67 126.878L1178.49 94.4618L1234.47 126.603L1234.62 191.154L1178.8 223.57L1122.83 191.429L1122.67 126.878Z" fill="#D1D1D1"/>
<path d="M1347.91 449.643L1347.54 449.863L1291.06 482.655L1291.22 548.392L1291.6 548.609L1348.23 581.124L1348.61 580.905L1405.09 548.112L1404.93 482.376L1404.55 482.158L1347.91 449.643ZM1292.56 483.51L1347.91 451.368L1403.43 483.237L1403.59 547.25L1348.23 579.392L1292.72 547.522L1292.56 483.51Z" fill="#D1D1D1"/>
<path d="M1347.27 190.682L1347.13 190.761L1290.89 223.42L1291.05 288.619L1291.19 288.696L1347.59 321.08L1347.74 321.002L1403.98 288.341L1403.82 223.143L1403.68 223.065L1347.27 190.682ZM1291.45 223.739L1347.28 191.322L1403.26 223.464L1403.42 288.015L1347.59 320.424L1291.61 288.289L1291.45 223.739Z" fill="#D1D1D1"/>
<path d="M1347.75 385.326L1347.61 385.404L1291.37 418.063L1291.53 483.262L1291.67 483.34L1348.07 515.722L1348.22 515.644L1404.46 482.985L1404.3 417.786L1404.16 417.708L1347.75 385.326ZM1291.93 418.39L1347.75 385.973L1403.74 418.115L1403.9 482.666L1348.07 515.082L1292.09 482.941L1291.93 418.39Z" fill="#D1D1D1"/>
<path d="M673.074 192.355L672.934 192.433L616.689 225.093L616.849 290.291L616.99 290.369L673.394 322.752L673.535 322.673L729.78 290.014L729.62 224.815L729.479 224.738L673.074 192.355ZM617.259 225.411L673.084 193.002L729.067 225.136L729.225 289.687L673.393 322.104L617.41 289.962L617.251 225.411L617.259 225.411Z" fill="#D1D1D1"/>
<path d="M448.824 388.253L448.683 388.331L392.438 420.991L392.598 486.189L392.739 486.268L449.144 518.65L449.284 518.572L505.529 485.912L505.369 420.714L505.228 420.636L448.824 388.253ZM393.001 421.31L448.825 388.901L504.808 421.035L504.967 485.586L449.142 517.994L393.159 485.861L393.001 421.31Z" fill="#D1D1D1"/>
<path d="M392.56 355.94L392.419 356.018L336.174 388.678L336.335 453.876L336.476 453.954L392.881 486.337L393.02 486.259L449.265 453.599L449.105 388.401L448.965 388.322L392.56 355.94ZM336.737 389.004L392.562 356.588L448.544 388.729L448.702 453.28L392.879 485.697L336.896 453.555L336.737 389.004Z" fill="#D1D1D1"/>
<path d="M116.069 480.104C118.392 480.098 120.281 481.977 120.287 484.3C120.292 486.623 118.413 488.512 116.09 488.517C113.767 488.523 111.878 486.644 111.873 484.321C111.867 481.998 113.746 480.109 116.069 480.104Z" fill="#C5C8CD"/>
<path d="M828.76 634.513C831.083 634.507 832.972 636.385 832.977 638.708C832.983 641.032 831.104 642.92 828.781 642.926C826.458 642.931 824.569 641.053 824.563 638.729C824.558 636.406 826.437 634.518 828.76 634.513Z" fill="#C5C8CD"/>
<path d="M1235.86 576.358C1238.18 576.353 1240.07 578.232 1240.07 580.555C1240.08 582.878 1238.2 584.767 1235.88 584.772C1233.55 584.778 1231.67 582.899 1231.66 580.576C1231.66 578.253 1233.53 576.364 1235.86 576.358Z" fill="#C5C8CD"/>
<path d="M954.224 284.936C956.548 284.931 958.436 286.809 958.442 289.133C958.447 291.456 956.569 293.344 954.245 293.349C951.922 293.355 950.034 291.477 950.029 289.154C950.023 286.83 951.901 284.942 954.224 284.936Z" fill="#C5C8CD"/>
<path d="M617.131 319.394C619.454 319.388 621.342 321.267 621.347 323.59C621.353 325.913 619.475 327.801 617.152 327.807C614.828 327.813 612.94 325.934 612.934 323.611C612.929 321.287 614.807 319.4 617.131 319.394Z" fill="#C5C8CD"/>
<path d="M397.165 518.1C397.159 515.774 395.273 513.898 392.947 513.903C390.621 513.909 388.746 515.795 388.752 518.121C388.757 520.446 390.642 522.322 392.968 522.316C395.294 522.311 397.17 520.418 397.165 518.1Z" fill="#C5C8CD"/>
<path d="M279.623 125.329C281.947 125.323 283.835 127.202 283.84 129.525C283.846 131.848 281.968 133.737 279.644 133.743C277.321 133.748 275.433 131.869 275.427 129.546C275.422 127.223 277.3 125.334 279.623 125.329Z" fill="#C5C8CD"/>
<path d="M111.318 222.986C113.641 222.981 115.528 224.86 115.534 227.183C115.54 229.506 113.661 231.395 111.338 231.4C109.014 231.406 107.127 229.527 107.121 227.204C107.115 224.881 108.994 222.992 111.318 222.986Z" fill="#C5C8CD"/>
<path d="M1010.8 447.161C1013.13 447.155 1015.02 449.035 1015.02 451.358C1015.03 453.681 1013.15 455.569 1010.82 455.575C1008.5 455.581 1006.62 453.701 1006.61 451.378C1006.61 449.055 1008.48 447.167 1010.8 447.161Z" fill="#C5C8CD"/>
</g>
<defs>
<clipPath id="clip0_1_446">
<rect width="1440" height="808" fill="white" transform="matrix(0.999997 -0.00245716 -0.00245716 -0.999997 1.98541 811.536)"/>
</clipPath>
</defs>
</svg>
